REM DIRINDEX 1\4,1\2\5,1\2\6,1\3\7,1\3\8
REM DIRNAME cjc124,folder01,folder02,folder03,folder04,folder05,folder06,folder07
TITLE ""
FILE "002_Day01_Check3_Sentences.mp3" MP3
  TRACK 01 AUDIO
    TITLE "0:"
    INDEX 01 00:00:00
  TRACK 02 AUDIO
    TITLE "4:cjc124_0034"
    INDEX 01 00:00:25
  TRACK 03 AUDIO
    TITLE "0:"
    INDEX 01 00:01:52
  TRACK 04 AUDIO
    TITLE "7:cjc124_0035"
    INDEX 01 00:02:22
  TRACK 05 AUDIO
    TITLE "0:"
    INDEX 01 00:04:05
  TRACK 06 AUDIO
    TITLE "8:cjc124_0036"
    INDEX 01 00:04:25
  TRACK 07 AUDIO
    TITLE "0:"
    INDEX 01 00:06:35
  TRACK 08 AUDIO
    TITLE "7:cjc124_0037"
    INDEX 01 00:06:73
  TRACK 09 AUDIO
    TITLE "0:"
    INDEX 01 00:08:56
  TRACK 10 AUDIO
    TITLE "8:cjc124_0038"
    INDEX 01 00:09:02
  TRACK 11 AUDIO
    TITLE "0:"
    INDEX 01 00:11:07
  TRACK 12 AUDIO
    TITLE "7:cjc124_0039"
    INDEX 01 00:11:44
  TRACK 13 AUDIO
    TITLE "0:"
    INDEX 01 00:14:15
  TRACK 14 AUDIO
    TITLE "8:cjc124_0040"
    INDEX 01 00:14:35
  TRACK 15 AUDIO
    TITLE "0:"
    INDEX 01 00:17:14
  TRACK 16 AUDIO
    TITLE "7:cjc124_0041"
    INDEX 01 00:17:53
  TRACK 17 AUDIO
    TITLE "0:"
    INDEX 01 00:19:30
  TRACK 18 AUDIO
    TITLE "8:cjc124_0042"
    INDEX 01 00:19:50
  TRACK 19 AUDIO
    TITLE "0:"
    INDEX 01 00:21:37
  TRACK 20 AUDIO
    TITLE "7:cjc124_0043"
    INDEX 01 00:22:03
  TRACK 21 AUDIO
    TITLE "0:"
    INDEX 01 00:24:43
  TRACK 22 AUDIO
    TITLE "8:cjc124_0044"
    INDEX 01 00:24:63
  TRACK 23 AUDIO
    TITLE "0:"
    INDEX 01 00:27:61
  TRACK 24 AUDIO
    TITLE "7:cjc124_0045"
    INDEX 01 00:28:29
  TRACK 25 AUDIO
    TITLE "0:"
    INDEX 01 00:30:57
  TRACK 26 AUDIO
    TITLE "8:cjc124_0046"
    INDEX 01 00:31:00
  TRACK 27 AUDIO
    TITLE "0:"
    INDEX 01 00:33:38
  TRACK 28 AUDIO
    TITLE "7:cjc124_0047"
    INDEX 01 00:34:10
  TRACK 29 AUDIO
    TITLE "0:"
    INDEX 01 00:35:66
  TRACK 30 AUDIO
    TITLE "8:cjc124_0048"
    INDEX 01 00:36:11
  TRACK 31 AUDIO
    TITLE "0:"
    INDEX 01 00:38:14
  TRACK 32 AUDIO
    TITLE "7:cjc124_0049"
    INDEX 01 00:38:59
  TRACK 33 AUDIO
    TITLE "0:"
    INDEX 01 00:40:50
  TRACK 34 AUDIO
    TITLE "8:cjc124_0050"
    INDEX 01 00:41:00
  TRACK 35 AUDIO
    TITLE "0:"
    INDEX 01 00:43:19
  TRACK 36 AUDIO
    TITLE "7:cjc124_0051"
    INDEX 01 00:43:58
  TRACK 37 AUDIO
    TITLE "0:"
    INDEX 01 00:46:47
  TRACK 38 AUDIO
    TITLE "8:cjc124_0052"
    INDEX 01 00:46:64
  TRACK 39 AUDIO
    TITLE "0:"
    INDEX 01 00:49:10
  TRACK 40 AUDIO
    TITLE "7:cjc124_0053"
    INDEX 01 00:49:49
  TRACK 41 AUDIO
    TITLE "0:"
    INDEX 01 00:52:45
  TRACK 42 AUDIO
    TITLE "8:cjc124_0054"
    INDEX 01 00:52:65
  TRACK 43 AUDIO
    TITLE "0:"
    INDEX 01 00:56:02
  TRACK 44 AUDIO
    TITLE "7:cjc124_0055"
    INDEX 01 00:56:43
  TRACK 45 AUDIO
    TITLE "0:"
    INDEX 01 00:58:22
  TRACK 46 AUDIO
    TITLE "8:cjc124_0056"
    INDEX 01 00:58:40
  TRACK 47 AUDIO
    TITLE "0:"
    INDEX 01 00:59:71
  TRACK 48 AUDIO
    TITLE "7:cjc124_0057"
    INDEX 01 01:00:43
  TRACK 49 AUDIO
    TITLE "0:"
    INDEX 01 01:02:65
  TRACK 50 AUDIO
    TITLE "8:cjc124_0058"
    INDEX 01 01:03:12
  TRACK 51 AUDIO
    TITLE "0:"
    INDEX 01 01:05:50
  TRACK 52 AUDIO
    TITLE "7:cjc124_0059"
    INDEX 01 01:06:14
  TRACK 53 AUDIO
    TITLE "0:"
    INDEX 01 01:09:05
  TRACK 54 AUDIO
    TITLE "8:cjc124_0060"
    INDEX 01 01:09:26
  TRACK 55 AUDIO
    TITLE "0:"
    INDEX 01 01:12:11
  TRACK 56 AUDIO
    TITLE "7:cjc124_0061"
    INDEX 01 01:12:50
  TRACK 57 AUDIO
    TITLE "0:"
    INDEX 01 01:14:21
  TRACK 58 AUDIO
    TITLE "8:cjc124_0062"
    INDEX 01 01:14:37
  TRACK 59 AUDIO
    TITLE "0:"
    INDEX 01 01:16:44
  TRACK 60 AUDIO
    TITLE "7:cjc124_0063"
    INDEX 01 01:17:06
  TRACK 61 AUDIO
    TITLE "0:"
    INDEX 01 01:19:05
  TRACK 62 AUDIO
    TITLE "8:cjc124_0064"
    INDEX 01 01:19:23
  TRACK 63 AUDIO
    TITLE "0:"
    INDEX 01 01:21:33
  TRACK 64 AUDIO
    TITLE "7:cjc124_0065"
    INDEX 01 01:21:70
  TRACK 65 AUDIO
    TITLE "0:"
    INDEX 01 01:24:51
  TRACK 66 AUDIO
    TITLE "8:cjc124_0066"
    INDEX 01 01:24:69
  TRACK 67 AUDIO
    TITLE "0:"
    INDEX 01 01:27:57
